<svg width="985" height="197" viewBox="0 0 985 197" fill="none" xmlns="http://www.w3.org/2000/svg">
<g clip-path="url(#clip0_1_24)">
<path d="M354.85 152.93C354.85 154.17 353.92 154.79 351.9 154.64C340.73 154.02 331.74 154.02 320.57 154.64C318.55 154.79 317.62 154.17 317.62 152.93C317.62 152.16 318.55 151.22 320.41 150.45C323.05 149.36 323.67 146.88 323.67 140.68V107.8H276.4V140.68C276.4 146.89 277.02 149.37 279.66 150.45C281.52 151.22 282.45 152.16 282.45 152.93C282.45 154.17 281.52 154.79 279.5 154.64C268.33 154.02 259.34 154.02 248.17 154.64C246.15 154.79 245.22 154.17 245.22 152.93C245.22 152.16 246.15 151.38 247.86 150.45C250.81 149.36 251.27 146.88 251.27 140.68V56.1399C251.27 49.9399 250.81 47.4499 247.86 46.3699C246.15 45.5899 245.22 44.6599 245.22 43.8899C245.22 42.6499 246.15 42.0299 248.17 42.1799C259.34 42.7999 268.33 42.7999 279.5 42.1799C281.52 42.0299 282.45 42.6499 282.45 43.8899C282.45 44.6699 281.52 45.5999 279.66 46.3699C277.02 47.4499 276.4 49.9399 276.4 56.1399V101.43H323.67V56.1399C323.67 49.9399 323.05 47.4499 320.41 46.3699C318.55 45.5899 317.62 44.6599 317.62 43.8899C317.62 42.6499 318.55 42.0299 320.57 42.1799C331.74 42.7999 340.73 42.7999 351.9 42.1799C353.92 42.0299 354.85 42.6499 354.85 43.8899C354.85 44.6699 353.92 45.5999 352.06 46.3699C349.42 47.4499 348.8 49.9399 348.8 56.1399V140.67C348.8 146.88 349.42 149.36 352.06 150.44C353.92 151.21 354.85 152.15 354.85 152.92V152.93Z" fill="black"/>
<path d="M447.14 67.7799C447.14 69.0199 446.37 69.7999 444.81 70.2599C441.24 70.8799 437.83 75.0699 434.88 82.9799L406.96 153.25C404.94 158.06 403.24 161.78 401.84 164.73C400.44 167.68 398.43 170.78 396.1 174.04C391.29 180.71 385.24 183.81 377.64 184.43C369.89 185.2 364.46 183.19 361.35 178.38C359.02 174.81 359.02 171.55 361.35 168.61C362.12 167.68 363.06 166.9 364.3 166.28C370.51 163.95 371.9 165.04 376.24 167.05C378.57 168.14 380.27 168.76 381.67 168.91C388.34 169.53 393.92 165.03 398.11 155.57L364.61 80.1899C362.13 74.6099 361.82 73.6799 360.42 72.2799C359.8 71.5099 359.02 70.8799 358.1 70.4199C356.24 69.6399 355.31 68.7099 355.31 67.7799C355.31 66.6899 356.24 66.0699 358.26 66.2299C370.05 66.8499 378.11 66.8499 389.9 66.2299C391.92 66.0699 392.85 66.6899 392.85 67.7799C392.85 68.7099 391.92 69.6399 390.06 70.4199C387.11 71.5099 387.27 73.9899 389.75 80.1899L408.52 129.2C419.84 101.13 425.89 85.6199 426.98 82.9799C430.08 75.3799 429.46 71.1899 425.12 70.4199C421.4 69.3299 421.4 66.2299 425.28 66.2299C430.55 66.5399 433.96 66.6899 435.36 66.6899C436.45 66.6899 439.39 66.5399 444.36 66.2299C446.22 66.0699 447.15 66.6899 447.15 67.7799H447.14Z" fill="black"/>
<path d="M536.33 151.69C536.33 152.78 535.4 153.4 533.38 153.4C522.68 153.71 514.77 154.17 509.49 154.8C507.63 155.11 506.7 154.18 506.7 152.16V140.37C500.96 151.23 491.65 156.65 478.94 156.65C467 156.65 457.38 152.15 450.4 143.16C443.42 134.16 440.16 121.91 440.63 106.56C441.1 92.4399 445.44 81.5899 453.81 73.9899C462.34 66.3899 472.73 63.2899 485.3 64.6799C495.07 65.7699 502.21 70.5699 506.71 78.9499V63.5899C506.71 58.0099 505.62 54.7499 503.45 53.8199C501.59 53.0499 500.66 52.2699 500.66 51.1799C500.66 50.0899 501.59 49.1599 503.3 48.5399C511.99 46.9899 520.05 44.3499 527.34 40.6299C528.74 39.8499 530.13 40.4699 530.13 42.1799V139.59C530.13 145.64 530.91 148.12 533.54 149.21C535.4 149.98 536.33 150.92 536.33 151.69ZM507.01 112.92V105.78C506.39 83.2899 497.55 71.4999 484.36 72.1199C478.15 72.2699 473.35 76.1499 469.78 83.5999C466.21 91.0499 464.66 100.35 464.82 111.52C464.98 122.84 467.15 131.53 471.49 137.89C475.83 144.1 481.11 147.04 487.31 146.73C499.1 146.27 506.39 134.48 507.01 112.92Z" fill="black"/>
<path d="M610.78 73.5199C613.11 78.3299 613.11 82.6699 610.47 86.8599C608.45 90.1199 605.51 91.8199 601.47 91.6699C596.04 91.6699 593.4 87.6399 592.63 83.9199C592.01 80.0399 589.06 76.0099 583.32 76.0099C576.03 76.0099 572.31 83.7699 572.31 99.1199V140.69C572.31 146.9 573.71 149.53 577.58 150.62C579.6 151.24 580.53 152.02 580.53 152.95C580.53 154.19 579.44 154.81 577.43 154.66C565.64 154.04 556.8 154.04 545.63 154.66C543.61 154.81 542.68 154.19 542.68 152.95C542.68 152.18 543.61 151.24 545.47 150.47C547.8 149.7 548.88 146.44 548.88 140.7V89.0499C548.88 83.4699 547.8 80.2099 545.47 79.2799C543.61 78.5099 542.68 77.7299 542.68 76.6399C542.68 75.5499 543.45 74.7799 544.85 74.4699C552.76 72.7599 560.51 70.1299 567.96 66.2499C569.67 65.3199 570.75 65.7799 570.91 67.7999L572 80.3599V80.8299C575.72 69.8199 582.55 64.2299 592.63 64.2299C601.78 64.2299 607.83 67.3299 610.78 73.5399V73.5199Z" fill="black"/>
<path d="M694.7 152.62C694.7 154.02 693.61 154.64 691.6 154.64H689.89C685.7 154.64 685.55 154.64 681.36 154.17C679.34 154.02 677.64 153.55 676.55 153.08C672.67 150.91 668.48 147.96 667.09 140.67C662.13 150.75 650.96 156.65 638.7 156.65C621.79 156.65 612.02 147.81 611.56 135.25C610.63 116.64 627.54 108.42 641.96 105.16C651.89 102.52 662.9 99.8899 666.62 96.9399V94.4599C666.62 76.3099 663.83 68.2499 653.28 68.2499C632.5 68.2499 647.39 94.3099 628.62 93.2199C624.43 93.0699 621.79 90.8899 620.55 87.0099C619 82.3599 620.24 77.8599 624.43 73.3599C630.32 67.3099 639.94 64.2099 653.28 64.2099C677.48 64.2099 689.73 74.2899 689.73 96.6299C689.73 98.0299 689.73 104.54 689.88 116.17C690.03 127.8 690.03 135.25 690.03 138.51C690.03 144.72 690.65 148.44 691.89 149.83C693.13 151.07 694.68 151.38 694.68 152.62H694.7ZM666.47 127.03L666.62 104.38C665.22 105.31 662.43 106.71 658.24 108.41C654.05 110.12 650.49 111.82 647.23 113.37C641.02 116.47 634.67 123.3 635.29 131.83C635.75 139.12 641.65 143.46 649.09 143.31C659.64 143.31 666.46 135.71 666.46 127.02L666.47 127.03Z" fill="black"/>
<path d="M743.56 148.43C739.68 153.7 733.79 156.34 725.88 156.34C712.39 156.34 705.72 149.51 705.72 135.87V72.5799H700.29C698.59 72.5799 697.81 71.4999 697.81 69.3199C697.81 66.8399 698.28 66.2199 700.29 66.2199H702.31C706.81 66.2199 711.15 64.5099 715.18 61.2599C719.37 57.8499 722.16 53.8099 723.71 49.0099C724.17 47.6099 725.11 46.9899 726.5 46.9899C728.21 46.9899 729.14 47.7599 729.14 49.4699V66.2199H741.55C743.1 66.2199 743.88 67.2999 743.88 69.3199C743.88 71.4899 743.11 72.5799 741.55 72.5799H729.14V136.95C729.14 143 730.69 146.26 733.95 146.88C734.88 147.03 737.05 146.57 740.31 145.48C742.02 144.55 743.1 144.39 743.72 145.02C744.49 145.79 744.49 146.88 743.57 148.43H743.56Z" fill="black"/>
<path d="M786.68 152.93C786.68 154.17 785.75 154.79 783.73 154.64C778.15 154.33 773.18 154.17 768.84 154.17C764.19 154.17 759.22 154.32 753.95 154.64C751.93 154.79 751 154.17 751 152.93C751 152.16 751.93 151.22 753.79 150.45C756.43 149.36 757.05 146.88 757.05 140.68V89.1799C757.05 83.1299 756.43 80.6499 753.79 79.4099C751.93 78.6399 751 77.8599 751 76.7699C751 75.6799 751.93 74.7499 753.79 74.1299C762.48 72.4199 770.39 69.7899 777.68 66.2199C779.7 65.2899 780.63 65.7499 780.63 67.7699V140.67C780.63 146.88 781.25 149.36 783.89 150.44C785.75 151.21 786.68 152.15 786.68 152.92V152.93ZM756.9 55.6799C750.85 50.7199 750.85 42.6499 756.9 37.6899C762.95 32.7299 772.57 32.7299 778.61 37.6899C784.66 42.6499 784.66 50.7199 778.61 55.6799C772.56 60.4899 762.94 60.4899 756.9 55.6799Z" fill="black"/>
<path d="M870.9 77.5499C879.28 86.3899 883.46 97.3999 883.46 110.43C883.46 123.46 879.27 134.63 870.9 143.47C862.68 152.31 851.67 156.65 838.17 156.65C824.67 156.65 813.66 152.31 805.44 143.47C797.22 134.63 793.03 123.62 793.03 110.43C793.18 97.2499 797.37 86.3899 805.59 77.5499C813.81 68.7099 824.67 64.2099 838.16 64.2099C851.65 64.2099 862.67 68.7099 870.89 77.5499H870.9ZM817.39 114C819.41 125.63 822.97 134.94 828.09 142.23C833.21 149.52 839.26 152.47 846.24 151.38C860.35 148.59 862.84 128.27 859.11 106.86C857.09 95.2299 853.53 85.9199 848.41 78.6299C843.29 71.3399 837.24 68.3899 830.42 69.4799C815.84 72.2699 813.51 92.5899 817.39 114Z" fill="black"/>
<path d="M984.29 152.93C984.29 154.17 983.36 154.79 981.34 154.64C970.79 154.02 962.11 154.02 951.56 154.64C949.54 154.79 948.61 154.17 948.61 152.93C948.61 152.16 949.54 151.22 951.4 150.45C954.04 149.36 954.66 146.88 954.66 140.68V101.13C954.66 84.0699 948.92 75.5399 937.44 75.5399C931.08 75.5399 926.27 78.0199 923.01 82.9799C919.75 87.7899 918.2 93.6799 918.2 100.35V140.68C918.2 146.42 919.28 149.68 921.61 150.45C923.32 151.22 924.25 152.16 924.25 152.93C924.25 154.17 923.32 154.79 921.3 154.64C916.34 154.33 911.37 154.17 906.57 154.17C901.77 154.17 896.95 154.32 891.68 154.64C889.66 154.79 888.73 154.17 888.73 152.93C888.73 152.16 889.66 151.38 891.37 150.45C893.7 149.68 894.78 146.42 894.78 140.68V89.0299C894.78 83.4499 893.7 80.1899 891.37 79.2599C889.51 78.4899 888.58 77.7099 888.58 76.6199C888.58 75.5299 889.35 74.7599 890.75 74.4499C898.66 72.7399 906.41 70.1099 913.86 66.2299C915.57 65.2999 916.65 65.7599 916.81 67.7799L917.9 80.3399L918.05 81.8899C923.48 70.0999 932.94 64.2099 946.28 64.2099C968.46 64.2099 978.23 76.1499 978.23 101.13V140.68C978.23 146.89 978.85 149.37 981.49 150.45C983.35 151.22 984.28 152.16 984.28 152.93H984.29Z" fill="black"/>
<path d="M176.21 111.5C178.45 109.26 181.33 106.38 184.2 103.52C190.59 97.1399 190.59 86.7799 184.2 80.3899L177.43 73.6199C153.2 97.8499 116.95 102.71 87.89 88.2299C107.53 91.8599 127.89 89.0299 145.93 79.3299C158 72.8399 160.29 56.4799 150.6 46.7899L110.65 6.8399C101.72 -2.09011 87.25 -2.09011 78.33 6.8399L35.27 49.8999C63.63 37.8499 97.69 43.4399 120.75 66.6599C85.57 49.5799 41.98 55.6399 12.77 84.8499C10.53 87.0899 7.63999 89.9799 4.77999 92.8399C-1.60001 99.2299 -1.60001 109.58 4.77999 115.96L11.54 122.72C35.77 98.4899 72.02 93.6299 101.08 108.11C81.44 104.48 61.08 107.31 43.04 117.01C30.97 123.5 28.68 139.86 38.37 149.55L78.32 189.5C87.25 198.43 101.72 198.43 110.64 189.5L153.7 146.44C125.34 158.49 91.28 152.9 68.22 129.68C103.4 146.76 146.99 140.7 176.2 111.49L176.21 111.5Z" fill="black"/>
</g>
<defs>
<clipPath id="clip0_1_24">
<rect width="984.29" height="196.05" fill="white" transform="translate(0 0.149902)"/>
</clipPath>
</defs>
</svg>
