<svg width="985" height="197" viewBox="0 0 985 197" fill="none" xmlns="http://www.w3.org/2000/svg">
<g clip-path="url(#clip0_1_13)">
<path d="M354.85 152.83C354.85 154.07 353.92 154.69 351.9 154.54C340.73 153.92 331.74 153.92 320.57 154.54C318.55 154.69 317.62 154.07 317.62 152.83C317.62 152.06 318.55 151.12 320.41 150.35C323.05 149.26 323.67 146.78 323.67 140.58V107.7H276.4V140.58C276.4 146.79 277.02 149.27 279.66 150.35C281.52 151.12 282.45 152.06 282.45 152.83C282.45 154.07 281.52 154.69 279.5 154.54C268.33 153.92 259.34 153.92 248.17 154.54C246.15 154.69 245.22 154.07 245.22 152.83C245.22 152.06 246.15 151.28 247.86 150.35C250.81 149.26 251.27 146.78 251.27 140.58V56.0398C251.27 49.8398 250.81 47.3498 247.86 46.2698C246.15 45.4898 245.22 44.5598 245.22 43.7898C245.22 42.5498 246.15 41.9298 248.17 42.0798C259.34 42.6998 268.33 42.6998 279.5 42.0798C281.52 41.9298 282.45 42.5498 282.45 43.7898C282.45 44.5698 281.52 45.4998 279.66 46.2698C277.02 47.3498 276.4 49.8398 276.4 56.0398V101.33H323.67V56.0398C323.67 49.8398 323.05 47.3498 320.41 46.2698C318.55 45.4898 317.62 44.5598 317.62 43.7898C317.62 42.5498 318.55 41.9298 320.57 42.0798C331.74 42.6998 340.73 42.6998 351.9 42.0798C353.92 41.9298 354.85 42.5498 354.85 43.7898C354.85 44.5698 353.92 45.4998 352.06 46.2698C349.42 47.3498 348.8 49.8398 348.8 56.0398V140.57C348.8 146.78 349.42 149.26 352.06 150.34C353.92 151.11 354.85 152.05 354.85 152.82V152.83Z" fill="#F6F6EC"/>
<path d="M447.14 67.6798C447.14 68.9198 446.37 69.6998 444.81 70.1598C441.24 70.7798 437.83 74.9698 434.88 82.8798L406.96 153.15C404.94 157.96 403.24 161.68 401.84 164.63C400.44 167.58 398.43 170.68 396.1 173.94C391.29 180.61 385.24 183.71 377.64 184.33C369.89 185.1 364.46 183.09 361.35 178.28C359.02 174.71 359.02 171.45 361.35 168.51C362.12 167.58 363.06 166.8 364.3 166.18C370.51 163.85 371.9 164.94 376.24 166.95C378.57 168.04 380.27 168.66 381.67 168.81C388.34 169.43 393.92 164.93 398.11 155.47L364.61 80.0898C362.13 74.5098 361.82 73.5798 360.42 72.1798C359.8 71.4098 359.02 70.7798 358.1 70.3198C356.24 69.5398 355.31 68.6098 355.31 67.6798C355.31 66.5898 356.24 65.9698 358.26 66.1298C370.05 66.7498 378.11 66.7498 389.9 66.1298C391.92 65.9698 392.85 66.5898 392.85 67.6798C392.85 68.6098 391.92 69.5398 390.06 70.3198C387.11 71.4098 387.27 73.8898 389.75 80.0898L408.52 129.1C419.84 101.03 425.89 85.5198 426.98 82.8798C430.08 75.2798 429.46 71.0898 425.12 70.3198C421.4 69.2298 421.4 66.1298 425.28 66.1298C430.55 66.4398 433.96 66.5898 435.36 66.5898C436.45 66.5898 439.39 66.4398 444.36 66.1298C446.22 65.9698 447.15 66.5898 447.15 67.6798H447.14Z" fill="#F6F6EC"/>
<path d="M536.33 151.59C536.33 152.68 535.4 153.3 533.38 153.3C522.68 153.61 514.77 154.07 509.49 154.7C507.63 155.01 506.7 154.08 506.7 152.06V140.27C500.96 151.13 491.65 156.55 478.94 156.55C467 156.55 457.38 152.05 450.4 143.06C443.42 134.06 440.16 121.81 440.63 106.46C441.1 92.3398 445.44 81.4898 453.81 73.8898C462.34 66.2898 472.73 63.1898 485.3 64.5798C495.07 65.6698 502.21 70.4698 506.71 78.8498V63.4898C506.71 57.9098 505.62 54.6498 503.45 53.7198C501.59 52.9498 500.66 52.1698 500.66 51.0798C500.66 49.9898 501.59 49.0598 503.3 48.4398C511.99 46.8898 520.05 44.2498 527.34 40.5298C528.74 39.7498 530.13 40.3698 530.13 42.0798V139.49C530.13 145.54 530.91 148.02 533.54 149.11C535.4 149.88 536.33 150.82 536.33 151.59ZM507.01 112.82V105.68C506.39 83.1898 497.55 71.3998 484.36 72.0198C478.15 72.1698 473.35 76.0498 469.78 83.4998C466.21 90.9498 464.66 100.25 464.82 111.42C464.98 122.74 467.15 131.43 471.49 137.79C475.83 144 481.11 146.94 487.31 146.63C499.1 146.17 506.39 134.38 507.01 112.82Z" fill="#F6F6EC"/>
<path d="M610.78 73.4198C613.11 78.2298 613.11 82.5698 610.47 86.7598C608.45 90.0198 605.51 91.7198 601.47 91.5698C596.04 91.5698 593.4 87.5398 592.63 83.8198C592.01 79.9398 589.06 75.9098 583.32 75.9098C576.03 75.9098 572.31 83.6698 572.31 99.0198V140.59C572.31 146.8 573.71 149.43 577.58 150.52C579.6 151.14 580.53 151.92 580.53 152.85C580.53 154.09 579.44 154.71 577.43 154.56C565.64 153.94 556.8 153.94 545.63 154.56C543.61 154.71 542.68 154.09 542.68 152.85C542.68 152.08 543.61 151.14 545.47 150.37C547.8 149.6 548.88 146.34 548.88 140.6V88.9498C548.88 83.3698 547.8 80.1098 545.47 79.1798C543.61 78.4098 542.68 77.6298 542.68 76.5398C542.68 75.4498 543.45 74.6798 544.85 74.3698C552.76 72.6598 560.51 70.0298 567.96 66.1498C569.67 65.2198 570.75 65.6798 570.91 67.6998L572 80.2598V80.7298C575.72 69.7198 582.55 64.1298 592.63 64.1298C601.78 64.1298 607.83 67.2298 610.78 73.4398V73.4198Z" fill="#F6F6EC"/>
<path d="M694.7 152.52C694.7 153.92 693.61 154.54 691.6 154.54H689.89C685.7 154.54 685.55 154.54 681.36 154.07C679.34 153.92 677.64 153.45 676.55 152.98C672.67 150.81 668.48 147.86 667.09 140.57C662.13 150.65 650.96 156.55 638.7 156.55C621.79 156.55 612.02 147.71 611.56 135.15C610.63 116.54 627.54 108.32 641.96 105.06C651.89 102.42 662.9 99.7898 666.62 96.8398V94.3598C666.62 76.2098 663.83 68.1498 653.28 68.1498C632.5 68.1498 647.39 94.2098 628.62 93.1198C624.43 92.9698 621.79 90.7898 620.55 86.9098C619 82.2598 620.24 77.7598 624.43 73.2598C630.32 67.2098 639.94 64.1098 653.28 64.1098C677.48 64.1098 689.73 74.1898 689.73 96.5298C689.73 97.9298 689.73 104.44 689.88 116.07C690.03 127.7 690.03 135.15 690.03 138.41C690.03 144.62 690.65 148.34 691.89 149.73C693.13 150.97 694.68 151.28 694.68 152.52H694.7ZM666.47 126.93L666.62 104.28C665.22 105.21 662.43 106.61 658.24 108.31C654.05 110.02 650.49 111.72 647.23 113.27C641.02 116.37 634.67 123.2 635.29 131.73C635.75 139.02 641.65 143.36 649.09 143.21C659.64 143.21 666.46 135.61 666.46 126.92L666.47 126.93Z" fill="#F6F6EC"/>
<path d="M743.56 148.33C739.68 153.6 733.79 156.24 725.88 156.24C712.39 156.24 705.72 149.41 705.72 135.77V72.4798H700.29C698.59 72.4798 697.81 71.3998 697.81 69.2198C697.81 66.7398 698.28 66.1198 700.29 66.1198H702.31C706.81 66.1198 711.15 64.4098 715.18 61.1598C719.37 57.7498 722.16 53.7098 723.71 48.9098C724.17 47.5098 725.11 46.8898 726.5 46.8898C728.21 46.8898 729.14 47.6598 729.14 49.3698V66.1198H741.55C743.1 66.1198 743.88 67.1998 743.88 69.2198C743.88 71.3898 743.11 72.4798 741.55 72.4798H729.14V136.85C729.14 142.9 730.69 146.16 733.95 146.78C734.88 146.93 737.05 146.47 740.31 145.38C742.02 144.45 743.1 144.29 743.72 144.92C744.49 145.69 744.49 146.78 743.57 148.33H743.56Z" fill="#F6F6EC"/>
<path d="M786.68 152.83C786.68 154.07 785.75 154.69 783.73 154.54C778.15 154.23 773.18 154.07 768.84 154.07C764.19 154.07 759.22 154.22 753.95 154.54C751.93 154.69 751 154.07 751 152.83C751 152.06 751.93 151.12 753.79 150.35C756.43 149.26 757.05 146.78 757.05 140.58V89.0798C757.05 83.0298 756.43 80.5498 753.79 79.3098C751.93 78.5398 751 77.7598 751 76.6698C751 75.5798 751.93 74.6498 753.79 74.0298C762.48 72.3198 770.39 69.6898 777.68 66.1198C779.7 65.1898 780.63 65.6498 780.63 67.6698V140.57C780.63 146.78 781.25 149.26 783.89 150.34C785.75 151.11 786.68 152.05 786.68 152.82V152.83ZM756.9 55.5798C750.85 50.6198 750.85 42.5498 756.9 37.5898C762.95 32.6298 772.57 32.6298 778.61 37.5898C784.66 42.5498 784.66 50.6198 778.61 55.5798C772.56 60.3898 762.94 60.3898 756.9 55.5798Z" fill="#F6F6EC"/>
<path d="M870.9 77.4498C879.28 86.2898 883.46 97.2998 883.46 110.33C883.46 123.36 879.27 134.53 870.9 143.37C862.68 152.21 851.67 156.55 838.17 156.55C824.67 156.55 813.66 152.21 805.44 143.37C797.22 134.53 793.03 123.52 793.03 110.33C793.18 97.1498 797.37 86.2898 805.59 77.4498C813.81 68.6098 824.67 64.1098 838.16 64.1098C851.65 64.1098 862.67 68.6098 870.89 77.4498H870.9ZM817.39 113.9C819.41 125.53 822.97 134.84 828.09 142.13C833.21 149.42 839.26 152.37 846.24 151.28C860.35 148.49 862.84 128.17 859.11 106.76C857.09 95.1298 853.53 85.8198 848.41 78.5298C843.29 71.2398 837.24 68.2898 830.42 69.3798C815.84 72.1698 813.51 92.4898 817.39 113.9Z" fill="#F6F6EC"/>
<path d="M984.29 152.83C984.29 154.07 983.36 154.69 981.34 154.54C970.79 153.92 962.11 153.92 951.56 154.54C949.54 154.69 948.61 154.07 948.61 152.83C948.61 152.06 949.54 151.12 951.4 150.35C954.04 149.26 954.66 146.78 954.66 140.58V101.03C954.66 83.9698 948.92 75.4398 937.44 75.4398C931.08 75.4398 926.27 77.9198 923.01 82.8798C919.75 87.6898 918.2 93.5798 918.2 100.25V140.58C918.2 146.32 919.28 149.58 921.61 150.35C923.32 151.12 924.25 152.06 924.25 152.83C924.25 154.07 923.32 154.69 921.3 154.54C916.34 154.23 911.37 154.07 906.57 154.07C901.77 154.07 896.95 154.22 891.68 154.54C889.66 154.69 888.73 154.07 888.73 152.83C888.73 152.06 889.66 151.28 891.37 150.35C893.7 149.58 894.78 146.32 894.78 140.58V88.9298C894.78 83.3498 893.7 80.0898 891.37 79.1598C889.51 78.3898 888.58 77.6098 888.58 76.5198C888.58 75.4298 889.35 74.6598 890.75 74.3498C898.66 72.6398 906.41 70.0098 913.86 66.1298C915.57 65.1998 916.65 65.6598 916.81 67.6798L917.9 80.2398L918.05 81.7898C923.48 69.9998 932.94 64.1098 946.28 64.1098C968.46 64.1098 978.23 76.0498 978.23 101.03V140.58C978.23 146.79 978.85 149.27 981.49 150.35C983.35 151.12 984.28 152.06 984.28 152.83H984.29Z" fill="#F6F6EC"/>
<path d="M176.21 111.4C178.45 109.16 181.33 106.28 184.2 103.42C190.59 97.0398 190.59 86.6798 184.2 80.2898L177.43 73.5198C153.2 97.7498 116.95 102.61 87.89 88.1298C107.53 91.7598 127.89 88.9298 145.93 79.2298C158 72.7398 160.29 56.3798 150.6 46.6898L110.65 6.7398C101.72 -2.1902 87.25 -2.1902 78.33 6.7398L35.27 49.7998C63.63 37.7498 97.69 43.3398 120.75 66.5598C85.57 49.4798 41.98 55.5398 12.77 84.7498C10.53 86.9898 7.63999 89.8798 4.77999 92.7398C-1.60001 99.1298 -1.60001 109.48 4.77999 115.86L11.54 122.62C35.77 98.3898 72.02 93.5298 101.08 108.01C81.44 104.38 61.08 107.21 43.04 116.91C30.97 123.4 28.68 139.76 38.37 149.45L78.32 189.4C87.25 198.33 101.72 198.33 110.64 189.4L153.7 146.34C125.34 158.39 91.28 152.8 68.22 129.58C103.4 146.66 146.99 140.6 176.2 111.39L176.21 111.4Z" fill="#F6F6EC"/>
</g>
<defs>
<clipPath id="clip0_1_13">
<rect width="984.29" height="196.05" fill="white" transform="translate(0 0.0498047)"/>
</clipPath>
</defs>
</svg>
