<svg width="985" height="197" viewBox="0 0 985 197" fill="none" xmlns="http://www.w3.org/2000/svg">
<g clip-path="url(#clip0_1_2)">
<path d="M354.85 152.78C354.85 154.02 353.92 154.64 351.9 154.49C340.73 153.87 331.74 153.87 320.57 154.49C318.55 154.64 317.62 154.02 317.62 152.78C317.62 152.01 318.55 151.07 320.41 150.3C323.05 149.21 323.67 146.73 323.67 140.53V107.65H276.4V140.53C276.4 146.74 277.02 149.22 279.66 150.3C281.52 151.07 282.45 152.01 282.45 152.78C282.45 154.02 281.52 154.64 279.5 154.49C268.33 153.87 259.34 153.87 248.17 154.49C246.15 154.64 245.22 154.02 245.22 152.78C245.22 152.01 246.15 151.23 247.86 150.3C250.81 149.21 251.27 146.73 251.27 140.53V55.99C251.27 49.79 250.81 47.3 247.86 46.22C246.15 45.44 245.22 44.51 245.22 43.74C245.22 42.5 246.15 41.88 248.17 42.03C259.34 42.65 268.33 42.65 279.5 42.03C281.52 41.88 282.45 42.5 282.45 43.74C282.45 44.52 281.52 45.45 279.66 46.22C277.02 47.3 276.4 49.79 276.4 55.99V101.28H323.67V55.99C323.67 49.79 323.05 47.3 320.41 46.22C318.55 45.44 317.62 44.51 317.62 43.74C317.62 42.5 318.55 41.88 320.57 42.03C331.74 42.65 340.73 42.65 351.9 42.03C353.92 41.88 354.85 42.5 354.85 43.74C354.85 44.52 353.92 45.45 352.06 46.22C349.42 47.3 348.8 49.79 348.8 55.99V140.52C348.8 146.73 349.42 149.21 352.06 150.29C353.92 151.06 354.85 152 354.85 152.77V152.78Z" fill="#240E32"/>
<path d="M447.14 67.63C447.14 68.87 446.37 69.65 444.81 70.11C441.24 70.73 437.83 74.92 434.88 82.83L406.96 153.1C404.94 157.91 403.24 161.63 401.84 164.58C400.44 167.53 398.43 170.63 396.1 173.89C391.29 180.56 385.24 183.66 377.64 184.28C369.89 185.05 364.46 183.04 361.35 178.23C359.02 174.66 359.02 171.4 361.35 168.46C362.12 167.53 363.06 166.75 364.3 166.13C370.51 163.8 371.9 164.89 376.24 166.9C378.57 167.99 380.27 168.61 381.67 168.76C388.34 169.38 393.92 164.88 398.11 155.42L364.61 80.04C362.13 74.46 361.82 73.53 360.42 72.13C359.8 71.36 359.02 70.73 358.1 70.27C356.24 69.49 355.31 68.56 355.31 67.63C355.31 66.54 356.24 65.92 358.26 66.08C370.05 66.7 378.11 66.7 389.9 66.08C391.92 65.92 392.85 66.54 392.85 67.63C392.85 68.56 391.92 69.49 390.06 70.27C387.11 71.36 387.27 73.84 389.75 80.04L408.52 129.05C419.84 100.98 425.89 85.47 426.98 82.83C430.08 75.23 429.46 71.04 425.12 70.27C421.4 69.18 421.4 66.08 425.28 66.08C430.55 66.39 433.96 66.54 435.36 66.54C436.45 66.54 439.39 66.39 444.36 66.08C446.22 65.92 447.15 66.54 447.15 67.63H447.14Z" fill="#240E32"/>
<path d="M536.33 151.54C536.33 152.63 535.4 153.25 533.38 153.25C522.68 153.56 514.77 154.02 509.49 154.65C507.63 154.96 506.7 154.03 506.7 152.01V140.22C500.96 151.08 491.65 156.5 478.94 156.5C467 156.5 457.38 152 450.4 143.01C443.42 134.01 440.16 121.76 440.63 106.41C441.1 92.29 445.44 81.44 453.81 73.84C462.34 66.24 472.73 63.14 485.3 64.53C495.07 65.62 502.21 70.42 506.71 78.8V63.44C506.71 57.86 505.62 54.6 503.45 53.67C501.59 52.9 500.66 52.12 500.66 51.03C500.66 49.94 501.59 49.01 503.3 48.39C511.99 46.84 520.05 44.2 527.34 40.48C528.74 39.7 530.13 40.32 530.13 42.03V139.44C530.13 145.49 530.91 147.97 533.54 149.06C535.4 149.83 536.33 150.77 536.33 151.54ZM507.01 112.77V105.63C506.39 83.14 497.55 71.35 484.36 71.97C478.15 72.12 473.35 76 469.78 83.45C466.21 90.9 464.66 100.2 464.82 111.37C464.98 122.69 467.15 131.38 471.49 137.74C475.83 143.95 481.11 146.89 487.31 146.58C499.1 146.12 506.39 134.33 507.01 112.77Z" fill="#240E32"/>
<path d="M610.78 73.37C613.11 78.18 613.11 82.52 610.47 86.71C608.45 89.97 605.51 91.67 601.47 91.52C596.04 91.52 593.4 87.49 592.63 83.77C592.01 79.89 589.06 75.86 583.32 75.86C576.03 75.86 572.31 83.62 572.31 98.97V140.54C572.31 146.75 573.71 149.38 577.58 150.47C579.6 151.09 580.53 151.87 580.53 152.8C580.53 154.04 579.44 154.66 577.43 154.51C565.64 153.89 556.8 153.89 545.63 154.51C543.61 154.66 542.68 154.04 542.68 152.8C542.68 152.03 543.61 151.09 545.47 150.32C547.8 149.55 548.88 146.29 548.88 140.55V88.9C548.88 83.32 547.8 80.06 545.47 79.13C543.61 78.36 542.68 77.58 542.68 76.49C542.68 75.4 543.45 74.63 544.85 74.32C552.76 72.61 560.51 69.98 567.96 66.1C569.67 65.17 570.75 65.63 570.91 67.65L572 80.21V80.68C575.72 69.67 582.55 64.08 592.63 64.08C601.78 64.08 607.83 67.18 610.78 73.39V73.37Z" fill="#240E32"/>
<path d="M694.7 152.47C694.7 153.87 693.61 154.49 691.6 154.49H689.89C685.7 154.49 685.55 154.49 681.36 154.02C679.34 153.87 677.64 153.4 676.55 152.93C672.67 150.76 668.48 147.81 667.09 140.52C662.13 150.6 650.96 156.5 638.7 156.5C621.79 156.5 612.02 147.66 611.56 135.1C610.63 116.49 627.54 108.27 641.96 105.01C651.89 102.37 662.9 99.74 666.62 96.79V94.31C666.62 76.16 663.83 68.1 653.28 68.1C632.5 68.1 647.39 94.16 628.62 93.07C624.43 92.92 621.79 90.74 620.55 86.86C619 82.21 620.24 77.71 624.43 73.21C630.32 67.16 639.94 64.06 653.28 64.06C677.48 64.06 689.73 74.14 689.73 96.48C689.73 97.88 689.73 104.39 689.88 116.02C690.03 127.65 690.03 135.1 690.03 138.36C690.03 144.57 690.65 148.29 691.89 149.68C693.13 150.92 694.68 151.23 694.68 152.47H694.7ZM666.47 126.88L666.62 104.23C665.22 105.16 662.43 106.56 658.24 108.26C654.05 109.97 650.49 111.67 647.23 113.22C641.02 116.32 634.67 123.15 635.29 131.68C635.75 138.97 641.65 143.31 649.09 143.16C659.64 143.16 666.46 135.56 666.46 126.87L666.47 126.88Z" fill="#240E32"/>
<path d="M743.56 148.28C739.68 153.55 733.79 156.19 725.88 156.19C712.39 156.19 705.72 149.36 705.72 135.72V72.43H700.29C698.59 72.43 697.81 71.35 697.81 69.17C697.81 66.69 698.28 66.07 700.29 66.07H702.31C706.81 66.07 711.15 64.36 715.18 61.11C719.37 57.7 722.16 53.66 723.71 48.86C724.17 47.46 725.11 46.84 726.5 46.84C728.21 46.84 729.14 47.61 729.14 49.32V66.07H741.55C743.1 66.07 743.88 67.15 743.88 69.17C743.88 71.34 743.11 72.43 741.55 72.43H729.14V136.8C729.14 142.85 730.69 146.11 733.95 146.73C734.88 146.88 737.05 146.42 740.31 145.33C742.02 144.4 743.1 144.24 743.72 144.87C744.49 145.64 744.49 146.73 743.57 148.28H743.56Z" fill="#240E32"/>
<path d="M786.68 152.78C786.68 154.02 785.75 154.64 783.73 154.49C778.15 154.18 773.18 154.02 768.84 154.02C764.19 154.02 759.22 154.17 753.95 154.49C751.93 154.64 751 154.02 751 152.78C751 152.01 751.93 151.07 753.79 150.3C756.43 149.21 757.05 146.73 757.05 140.53V89.03C757.05 82.98 756.43 80.5 753.79 79.26C751.93 78.49 751 77.71 751 76.62C751 75.53 751.93 74.6 753.79 73.98C762.48 72.27 770.39 69.64 777.68 66.07C779.7 65.14 780.63 65.6 780.63 67.62V140.52C780.63 146.73 781.25 149.21 783.89 150.29C785.75 151.06 786.68 152 786.68 152.77V152.78ZM756.9 55.53C750.85 50.57 750.85 42.5 756.9 37.54C762.95 32.58 772.57 32.58 778.61 37.54C784.66 42.5 784.66 50.57 778.61 55.53C772.56 60.34 762.94 60.34 756.9 55.53Z" fill="#240E32"/>
<path d="M870.9 77.4C879.28 86.24 883.46 97.25 883.46 110.28C883.46 123.31 879.27 134.48 870.9 143.32C862.68 152.16 851.67 156.5 838.17 156.5C824.67 156.5 813.66 152.16 805.44 143.32C797.22 134.48 793.03 123.47 793.03 110.28C793.18 97.1 797.37 86.24 805.59 77.4C813.81 68.56 824.67 64.06 838.16 64.06C851.65 64.06 862.67 68.56 870.89 77.4H870.9ZM817.39 113.85C819.41 125.48 822.97 134.79 828.09 142.08C833.21 149.37 839.26 152.32 846.24 151.23C860.35 148.44 862.84 128.12 859.11 106.71C857.09 95.08 853.53 85.77 848.41 78.48C843.29 71.19 837.24 68.24 830.42 69.33C815.84 72.12 813.51 92.44 817.39 113.85Z" fill="#240E32"/>
<path d="M984.29 152.78C984.29 154.02 983.36 154.64 981.34 154.49C970.79 153.87 962.11 153.87 951.56 154.49C949.54 154.64 948.61 154.02 948.61 152.78C948.61 152.01 949.54 151.07 951.4 150.3C954.04 149.21 954.66 146.73 954.66 140.53V100.98C954.66 83.92 948.92 75.39 937.44 75.39C931.08 75.39 926.27 77.87 923.01 82.83C919.75 87.64 918.2 93.53 918.2 100.2V140.53C918.2 146.27 919.28 149.53 921.61 150.3C923.32 151.07 924.25 152.01 924.25 152.78C924.25 154.02 923.32 154.64 921.3 154.49C916.34 154.18 911.37 154.02 906.57 154.02C901.77 154.02 896.95 154.17 891.68 154.49C889.66 154.64 888.73 154.02 888.73 152.78C888.73 152.01 889.66 151.23 891.37 150.3C893.7 149.53 894.78 146.27 894.78 140.53V88.88C894.78 83.3 893.7 80.04 891.37 79.11C889.51 78.34 888.58 77.56 888.58 76.47C888.58 75.38 889.35 74.61 890.75 74.3C898.66 72.59 906.41 69.96 913.86 66.08C915.57 65.15 916.65 65.61 916.81 67.63L917.9 80.19L918.05 81.74C923.48 69.95 932.94 64.06 946.28 64.06C968.46 64.06 978.23 76 978.23 100.98V140.53C978.23 146.74 978.85 149.22 981.49 150.3C983.35 151.07 984.28 152.01 984.28 152.78H984.29Z" fill="#240E32"/>
<path d="M176.21 111.35C178.45 109.11 181.33 106.23 184.2 103.37C190.59 96.99 190.59 86.63 184.2 80.24L177.43 73.47C153.2 97.7 116.95 102.56 87.89 88.08C107.53 91.71 127.89 88.88 145.93 79.18C158 72.69 160.29 56.33 150.6 46.64L110.65 6.68999C101.72 -2.24001 87.25 -2.24001 78.33 6.68999L35.27 49.75C63.63 37.7 97.69 43.29 120.75 66.51C85.57 49.43 41.98 55.49 12.77 84.7C10.53 86.94 7.63999 89.83 4.77999 92.69C-1.60001 99.08 -1.60001 109.43 4.77999 115.81L11.54 122.57C35.77 98.34 72.02 93.48 101.08 107.96C81.44 104.33 61.08 107.16 43.04 116.86C30.97 123.35 28.68 139.71 38.37 149.4L78.32 189.35C87.25 198.28 101.72 198.28 110.64 189.35L153.7 146.29C125.34 158.34 91.28 152.75 68.22 129.53C103.4 146.61 146.99 140.55 176.2 111.34L176.21 111.35Z" fill="#240E32"/>
</g>
<defs>
<clipPath id="clip0_1_2">
<rect width="984.29" height="196.05" fill="white"/>
</clipPath>
</defs>
</svg>
