<svg width="985" height="197" viewBox="0 0 985 197" fill="none" xmlns="http://www.w3.org/2000/svg">
<g clip-path="url(#clip0_1_35)">
<path d="M354.85 152.88C354.85 154.12 353.92 154.74 351.9 154.59C340.73 153.97 331.74 153.97 320.57 154.59C318.55 154.74 317.62 154.12 317.62 152.88C317.62 152.11 318.55 151.17 320.41 150.4C323.05 149.31 323.67 146.83 323.67 140.63V107.75H276.4V140.63C276.4 146.84 277.02 149.32 279.66 150.4C281.52 151.17 282.45 152.11 282.45 152.88C282.45 154.12 281.52 154.74 279.5 154.59C268.33 153.97 259.34 153.97 248.17 154.59C246.15 154.74 245.22 154.12 245.22 152.88C245.22 152.11 246.15 151.33 247.86 150.4C250.81 149.31 251.27 146.83 251.27 140.63V56.0898C251.27 49.8898 250.81 47.3998 247.86 46.3198C246.15 45.5398 245.22 44.6098 245.22 43.8398C245.22 42.5998 246.15 41.9798 248.17 42.1298C259.34 42.7498 268.33 42.7498 279.5 42.1298C281.52 41.9798 282.45 42.5998 282.45 43.8398C282.45 44.6198 281.52 45.5498 279.66 46.3198C277.02 47.3998 276.4 49.8898 276.4 56.0898V101.38H323.67V56.0898C323.67 49.8898 323.05 47.3998 320.41 46.3198C318.55 45.5398 317.62 44.6098 317.62 43.8398C317.62 42.5998 318.55 41.9798 320.57 42.1298C331.74 42.7498 340.73 42.7498 351.9 42.1298C353.92 41.9798 354.85 42.5998 354.85 43.8398C354.85 44.6198 353.92 45.5498 352.06 46.3198C349.42 47.3998 348.8 49.8898 348.8 56.0898V140.62C348.8 146.83 349.42 149.31 352.06 150.39C353.92 151.16 354.85 152.1 354.85 152.87V152.88Z" fill="#E53E76"/>
<path d="M447.14 67.7299C447.14 68.9699 446.37 69.7499 444.81 70.2099C441.24 70.8299 437.83 75.0199 434.88 82.9299L406.96 153.2C404.94 158.01 403.24 161.73 401.84 164.68C400.44 167.63 398.43 170.73 396.1 173.99C391.29 180.66 385.24 183.76 377.64 184.38C369.89 185.15 364.46 183.14 361.35 178.33C359.02 174.76 359.02 171.5 361.35 168.56C362.12 167.63 363.06 166.85 364.3 166.23C370.51 163.9 371.9 164.99 376.24 167C378.57 168.09 380.27 168.71 381.67 168.86C388.34 169.48 393.92 164.98 398.11 155.52L364.61 80.1399C362.13 74.5599 361.82 73.6299 360.42 72.2299C359.8 71.4599 359.02 70.8299 358.1 70.3699C356.24 69.5899 355.31 68.6599 355.31 67.7299C355.31 66.6399 356.24 66.0199 358.26 66.1799C370.05 66.7999 378.11 66.7999 389.9 66.1799C391.92 66.0199 392.85 66.6399 392.85 67.7299C392.85 68.6599 391.92 69.5899 390.06 70.3699C387.11 71.4599 387.27 73.9399 389.75 80.1399L408.52 129.15C419.84 101.08 425.89 85.5699 426.98 82.9299C430.08 75.3299 429.46 71.1399 425.12 70.3699C421.4 69.2799 421.4 66.1799 425.28 66.1799C430.55 66.4899 433.96 66.6399 435.36 66.6399C436.45 66.6399 439.39 66.4899 444.36 66.1799C446.22 66.0199 447.15 66.6399 447.15 67.7299H447.14Z" fill="#E53E76"/>
<path d="M536.33 151.64C536.33 152.73 535.4 153.35 533.38 153.35C522.68 153.66 514.77 154.12 509.49 154.75C507.63 155.06 506.7 154.13 506.7 152.11V140.32C500.96 151.18 491.65 156.6 478.94 156.6C467 156.6 457.38 152.1 450.4 143.11C443.42 134.11 440.16 121.86 440.63 106.51C441.1 92.3898 445.44 81.5398 453.81 73.9398C462.34 66.3398 472.73 63.2398 485.3 64.6298C495.07 65.7198 502.21 70.5199 506.71 78.8999V63.5398C506.71 57.9598 505.62 54.6998 503.45 53.7698C501.59 52.9998 500.66 52.2198 500.66 51.1298C500.66 50.0398 501.59 49.1098 503.3 48.4898C511.99 46.9398 520.05 44.2998 527.34 40.5798C528.74 39.7998 530.13 40.4198 530.13 42.1298V139.54C530.13 145.59 530.91 148.07 533.54 149.16C535.4 149.93 536.33 150.87 536.33 151.64ZM507.01 112.87V105.73C506.39 83.2398 497.55 71.4498 484.36 72.0698C478.15 72.2198 473.35 76.0998 469.78 83.5498C466.21 90.9998 464.66 100.3 464.82 111.47C464.98 122.79 467.15 131.48 471.49 137.84C475.83 144.05 481.11 146.99 487.31 146.68C499.1 146.22 506.39 134.43 507.01 112.87Z" fill="#E53E76"/>
<path d="M610.78 73.4699C613.11 78.2799 613.11 82.6199 610.47 86.8099C608.45 90.0699 605.51 91.7699 601.47 91.6199C596.04 91.6199 593.4 87.5899 592.63 83.8699C592.01 79.9899 589.06 75.9599 583.32 75.9599C576.03 75.9599 572.31 83.7199 572.31 99.0699V140.64C572.31 146.85 573.71 149.48 577.58 150.57C579.6 151.19 580.53 151.97 580.53 152.9C580.53 154.14 579.44 154.76 577.43 154.61C565.64 153.99 556.8 153.99 545.63 154.61C543.61 154.76 542.68 154.14 542.68 152.9C542.68 152.13 543.61 151.19 545.47 150.42C547.8 149.65 548.88 146.39 548.88 140.65V88.9999C548.88 83.4199 547.8 80.1599 545.47 79.2299C543.61 78.4599 542.68 77.6799 542.68 76.5899C542.68 75.4999 543.45 74.7299 544.85 74.4199C552.76 72.7099 560.51 70.0799 567.96 66.1999C569.67 65.2699 570.75 65.7299 570.91 67.7499L572 80.3099V80.7799C575.72 69.7699 582.55 64.1799 592.63 64.1799C601.78 64.1799 607.83 67.2799 610.78 73.4899V73.4699Z" fill="#E53E76"/>
<path d="M694.7 152.57C694.7 153.97 693.61 154.59 691.6 154.59H689.89C685.7 154.59 685.55 154.59 681.36 154.12C679.34 153.97 677.64 153.5 676.55 153.03C672.67 150.86 668.48 147.91 667.09 140.62C662.13 150.7 650.96 156.6 638.7 156.6C621.79 156.6 612.02 147.76 611.56 135.2C610.63 116.59 627.54 108.37 641.96 105.11C651.89 102.47 662.9 99.8399 666.62 96.8899V94.4099C666.62 76.2599 663.83 68.1999 653.28 68.1999C632.5 68.1999 647.39 94.2599 628.62 93.1699C624.43 93.0199 621.79 90.8399 620.55 86.9599C619 82.3099 620.24 77.8099 624.43 73.3099C630.32 67.2599 639.94 64.1599 653.28 64.1599C677.48 64.1599 689.73 74.2399 689.73 96.5799C689.73 97.9799 689.73 104.49 689.88 116.12C690.03 127.75 690.03 135.2 690.03 138.46C690.03 144.67 690.65 148.39 691.89 149.78C693.13 151.02 694.68 151.33 694.68 152.57H694.7ZM666.47 126.98L666.62 104.33C665.22 105.26 662.43 106.66 658.24 108.36C654.05 110.07 650.49 111.77 647.23 113.32C641.02 116.42 634.67 123.25 635.29 131.78C635.75 139.07 641.65 143.41 649.09 143.26C659.64 143.26 666.46 135.66 666.46 126.97L666.47 126.98Z" fill="#E53E76"/>
<path d="M743.56 148.38C739.68 153.65 733.79 156.29 725.88 156.29C712.39 156.29 705.72 149.46 705.72 135.82V72.5299H700.29C698.59 72.5299 697.81 71.4498 697.81 69.2698C697.81 66.7898 698.28 66.1698 700.29 66.1698H702.31C706.81 66.1698 711.15 64.4599 715.18 61.2099C719.37 57.7999 722.16 53.7599 723.71 48.9599C724.17 47.5599 725.11 46.9398 726.5 46.9398C728.21 46.9398 729.14 47.7098 729.14 49.4198V66.1698H741.55C743.1 66.1698 743.88 67.2498 743.88 69.2698C743.88 71.4398 743.11 72.5299 741.55 72.5299H729.14V136.9C729.14 142.95 730.69 146.21 733.95 146.83C734.88 146.98 737.05 146.52 740.31 145.43C742.02 144.5 743.1 144.34 743.72 144.97C744.49 145.74 744.49 146.83 743.57 148.38H743.56Z" fill="#E53E76"/>
<path d="M786.68 152.88C786.68 154.12 785.75 154.74 783.73 154.59C778.15 154.28 773.18 154.12 768.84 154.12C764.19 154.12 759.22 154.27 753.95 154.59C751.93 154.74 751 154.12 751 152.88C751 152.11 751.93 151.17 753.79 150.4C756.43 149.31 757.05 146.83 757.05 140.63V89.1299C757.05 83.0799 756.43 80.5999 753.79 79.3599C751.93 78.5899 751 77.8099 751 76.7199C751 75.6299 751.93 74.6999 753.79 74.0799C762.48 72.3699 770.39 69.7399 777.68 66.1699C779.7 65.2399 780.63 65.6999 780.63 67.7199V140.62C780.63 146.83 781.25 149.31 783.89 150.39C785.75 151.16 786.68 152.1 786.68 152.87V152.88ZM756.9 55.6299C750.85 50.6699 750.85 42.5999 756.9 37.6399C762.95 32.6799 772.57 32.6799 778.61 37.6399C784.66 42.5999 784.66 50.6699 778.61 55.6299C772.56 60.4399 762.94 60.4399 756.9 55.6299Z" fill="#E53E76"/>
<path d="M870.9 77.4999C879.28 86.3399 883.46 97.3499 883.46 110.38C883.46 123.41 879.27 134.58 870.9 143.42C862.68 152.26 851.67 156.6 838.17 156.6C824.67 156.6 813.66 152.26 805.44 143.42C797.22 134.58 793.03 123.57 793.03 110.38C793.18 97.1999 797.37 86.3399 805.59 77.4999C813.81 68.6599 824.67 64.1599 838.16 64.1599C851.65 64.1599 862.67 68.6599 870.89 77.4999H870.9ZM817.39 113.95C819.41 125.58 822.97 134.89 828.09 142.18C833.21 149.47 839.26 152.42 846.24 151.33C860.35 148.54 862.84 128.22 859.11 106.81C857.09 95.1799 853.53 85.8699 848.41 78.5799C843.29 71.2899 837.24 68.3399 830.42 69.4299C815.84 72.2199 813.51 92.5399 817.39 113.95Z" fill="#E53E76"/>
<path d="M984.29 152.88C984.29 154.12 983.36 154.74 981.34 154.59C970.79 153.97 962.11 153.97 951.56 154.59C949.54 154.74 948.61 154.12 948.61 152.88C948.61 152.11 949.54 151.17 951.4 150.4C954.04 149.31 954.66 146.83 954.66 140.63V101.08C954.66 84.0199 948.92 75.4899 937.44 75.4899C931.08 75.4899 926.27 77.9699 923.01 82.9299C919.75 87.7399 918.2 93.6299 918.2 100.3V140.63C918.2 146.37 919.28 149.63 921.61 150.4C923.32 151.17 924.25 152.11 924.25 152.88C924.25 154.12 923.32 154.74 921.3 154.59C916.34 154.28 911.37 154.12 906.57 154.12C901.77 154.12 896.95 154.27 891.68 154.59C889.66 154.74 888.73 154.12 888.73 152.88C888.73 152.11 889.66 151.33 891.37 150.4C893.7 149.63 894.78 146.37 894.78 140.63V88.9799C894.78 83.3999 893.7 80.1399 891.37 79.2099C889.51 78.4399 888.58 77.6599 888.58 76.5699C888.58 75.4799 889.35 74.7099 890.75 74.3999C898.66 72.6899 906.41 70.0599 913.86 66.1799C915.57 65.2499 916.65 65.7099 916.81 67.7299L917.9 80.2899L918.05 81.8399C923.48 70.0499 932.94 64.1599 946.28 64.1599C968.46 64.1599 978.23 76.0999 978.23 101.08V140.63C978.23 146.84 978.85 149.32 981.49 150.4C983.35 151.17 984.28 152.11 984.28 152.88H984.29Z" fill="#E53E76"/>
<path d="M176.21 111.45C178.45 109.21 181.33 106.33 184.2 103.47C190.59 97.0898 190.59 86.7298 184.2 80.3398L177.43 73.5698C153.2 97.7998 116.95 102.66 87.89 88.1798C107.53 91.8098 127.89 88.9798 145.93 79.2798C158 72.7898 160.29 56.4298 150.6 46.7398L110.65 6.78985C101.72 -2.14015 87.25 -2.14015 78.33 6.78985L35.27 49.8498C63.63 37.7998 97.69 43.3898 120.75 66.6098C85.57 49.5298 41.98 55.5898 12.77 84.7998C10.53 87.0398 7.63999 89.9298 4.77999 92.7898C-1.60001 99.1798 -1.60001 109.53 4.77999 115.91L11.54 122.67C35.77 98.4398 72.02 93.5798 101.08 108.06C81.44 104.43 61.08 107.26 43.04 116.96C30.97 123.45 28.68 139.81 38.37 149.5L78.32 189.45C87.25 198.38 101.72 198.38 110.64 189.45L153.7 146.39C125.34 158.44 91.28 152.85 68.22 129.63C103.4 146.71 146.99 140.65 176.2 111.44L176.21 111.45Z" fill="#E53E76"/>
</g>
<defs>
<clipPath id="clip0_1_35">
<rect width="984.29" height="196.05" fill="white" transform="translate(0 0.0998535)"/>
</clipPath>
</defs>
</svg>
