<svg width="349" height="361" viewBox="0 0 349 361" fill="none" xmlns="http://www.w3.org/2000/svg">
<path d="M324.963 205.039C329.094 200.913 334.411 195.603 339.691 190.336C351.467 178.58 351.473 159.513 339.697 147.752L327.222 135.292C282.559 179.902 215.723 188.865 162.143 162.187C198.356 168.875 235.886 163.665 269.142 145.807C291.389 133.858 295.614 103.722 277.754 85.883L204.11 12.3273C187.654 -4.10911 160.976 -4.10911 144.526 12.3273L65.1466 91.6111C117.423 69.4278 180.221 79.7123 222.738 122.471C157.874 91.0252 77.5215 102.182 23.6661 155.967C19.5348 160.093 14.2117 165.41 8.93225 170.683C-2.83731 182.445 -2.83107 201.499 8.93225 213.254L21.4007 225.708C66.0639 181.098 132.9 172.135 186.48 198.813C150.267 192.125 112.737 197.335 79.481 215.193C57.2336 227.142 53.0088 257.278 70.8691 275.117L144.513 348.673C160.969 365.109 187.647 365.109 204.097 348.673L283.476 269.389C231.2 291.572 168.402 281.288 125.879 238.529C190.743 269.975 271.095 258.818 324.951 205.033L324.963 205.039Z" fill="white"/>
</svg>
