<svg width="48" height="48" viewBox="0 0 48 48" fill="none" xmlns="http://www.w3.org/2000/svg">
<g clip-path="url(#clip0_1927_4428)">
<circle cx="24" cy="24" r="24" fill="#043875"/>
<g clip-path="url(#clip1_1927_4428)">
<path d="M24.0993 26.744C25.6911 26.744 27.1871 26.1226 28.3129 24.9944C30.0993 23.2035 30.5119 20.549 29.5513 18.3589C29.2902 19.2373 28.8139 20.0652 28.1224 20.759C27.0115 21.8728 25.5556 22.4297 24.0998 22.4297C22.644 22.4297 21.1882 21.8728 20.0772 20.759C19.384 20.0641 18.9072 19.2345 18.6467 18.3542C18.315 19.1056 18.1411 19.9243 18.1411 20.7705C18.1411 22.3664 18.7609 23.8663 19.8861 24.995C21.0114 26.1232 22.508 26.7445 24.0998 26.7445L24.0993 26.744Z" fill="#CFE8FF"/>
<path d="M24.0994 19.8396C24.9292 19.8396 25.709 19.5157 26.2961 18.9271C26.8825 18.3392 27.2062 17.5568 27.2062 16.7249C27.2062 15.8941 26.8837 15.1129 26.2984 14.5249L24.0994 12.3203L21.9005 14.5249C21.3152 15.1129 20.9927 15.8941 20.9927 16.7249C20.9927 17.5556 21.3157 18.3386 21.9028 18.9271C22.4898 19.5151 23.2697 19.8396 24.0994 19.8396Z" fill="#CFE8FF"/>
<path d="M30.1385 26.8244C28.4709 28.4963 26.2852 29.3322 24.0988 29.3322C21.9125 29.3322 19.7274 28.4963 18.0592 26.8244C16.756 25.5179 15.9624 23.8949 15.6772 22.2024C15.4207 23.0372 15.2876 23.9151 15.2876 24.8137C15.2876 27.1731 16.204 29.3914 17.8681 31.0598C19.5323 32.7282 21.745 33.647 24.0983 33.647C26.4516 33.647 28.6643 32.7282 30.3284 31.0598C31.9925 29.3914 32.909 27.1731 32.909 24.8137C32.909 23.9151 32.7758 23.0372 32.5193 22.2024C32.2341 23.8949 31.4405 25.5185 30.1373 26.8244H30.1385Z" fill="#CFE8FF"/>
<path d="M39.556 22.0413L24.0998 6.54541L8.64291 22.0413C7.11708 23.5711 7.11708 26.0512 8.64291 27.581L21.3367 40.3073C22.8626 41.8371 25.3364 41.8371 26.8622 40.3073L39.556 27.581C41.0819 26.0512 41.0819 23.5711 39.556 22.0413ZM32.1558 32.8905C29.9311 35.1209 27.0154 36.2359 24.0998 36.2359C21.1841 36.2359 18.2684 35.1209 16.0437 32.8905C11.5941 28.4295 11.5941 21.1973 16.0437 16.7364L18.0607 14.7142L20.0754 12.6943C20.0754 12.6943 20.0766 12.6926 20.0777 12.692L24.1003 8.65909L28.1229 12.692C28.1229 12.692 28.1241 12.6937 28.1252 12.6943L32.157 16.7364C36.6065 21.1973 36.6065 28.4295 32.157 32.8905H32.1558Z" fill="#CFE8FF"/>
</g>
</g>
<defs>
<clipPath id="clip0_1927_4428">
<rect width="48" height="48" fill="white"/>
</clipPath>
<clipPath id="clip1_1927_4428">
<rect width="33.2016" height="34.9091" fill="white" transform="translate(7.49854 6.54541)"/>
</clipPath>
</defs>
</svg>
