<svg width="48" height="48" viewBox="0 0 48 48" fill="none" xmlns="http://www.w3.org/2000/svg">
<g clip-path="url(#clip0_2972_778)">
<circle cx="24" cy="24" r="24" fill="#B3CF92"/>
<path d="M37.8783 13.2884H38.4135V11.5042H27.824V13.2884H28.3592C29.5386 13.2884 30.1988 13.4008 30.4968 13.656C30.7359 13.8594 30.8287 14.2662 30.8287 15.103L30.8233 21.9492H17.3183V15.103C17.3183 13.7095 17.3183 13.2884 19.7573 13.2884H20.2926V11.5042H9.7334V13.2884H10.2687C12.8862 13.2884 12.8862 13.7095 12.8862 15.103V21.4139C12.8862 21.7095 12.6465 21.9492 12.3509 21.9492H10.2687V23.266H12.3509C12.6465 23.266 12.8862 23.5056 12.8862 23.8012V24.6131H10.2687V25.9299H12.3509C12.6465 25.9299 12.8862 26.1695 12.8862 26.4651V32.7761C12.8862 34.1696 12.8862 34.5906 10.2687 34.5906H9.7334V36.3749H20.2926V34.5906H19.7573C17.3183 34.5906 17.3183 34.1696 17.3183 32.7761V26.4651C17.3183 26.1695 17.5579 25.9299 17.8535 25.9299H30.2934C30.589 25.9299 30.8287 26.1695 30.8287 26.4651V32.7761C30.8287 33.6147 30.7359 34.0197 30.4968 34.2231C30.1988 34.4764 29.5386 34.5906 28.3592 34.5906H27.824V36.3749H38.4135V34.5906H37.8783C35.2304 34.5906 35.2304 34.1339 35.2304 32.7761V26.4651C35.2304 26.1695 35.4701 25.9299 35.7657 25.9299H37.8783V24.6131H35.2304V23.8012C35.2304 23.5056 35.4701 23.266 35.7657 23.266H37.8783V21.9492H35.7657C35.4701 21.9492 35.2304 21.7095 35.2304 21.4139V15.103C35.2304 13.7452 35.2304 13.2884 37.8783 13.2884ZM30.8287 24.6113H17.3183V23.2642H30.8233V23.9083L30.8304 24.4436V24.6095C30.8304 24.6105 30.8296 24.6113 30.8287 24.6113Z" fill="#111A15"/>
</g>
<defs>
<clipPath id="clip0_2972_778">
<rect width="48" height="48" fill="white"/>
</clipPath>
</defs>
</svg>
